<?xml version="1.0" encoding="utf-8"?>
<!-- Generator: Adobe Illustrator 23.0.6, SVG Export Plug-In . SVG Version: 6.00 Build 0)  -->
<svg version="1.1" id="Layer_1" xmlns="http://www.w3.org/2000/svg" xmlns:xlink="http://www.w3.org/1999/xlink" x="0px" y="0px"
	 width="168.5px" height="82.6px" viewBox="0 0 168.5 82.6" style="enable-background:new 0 0 168.5 82.6;" xml:space="preserve">
<style type="text/css">
	.st0{fill:none;stroke:#6A7378;stroke-miterlimit:10;}
	.st1{fill:#F58220;}
	.st2{fill:#6A7378;}
	.st3{fill:#FFFFFF;}
	.st4{fill:#231F20;}
	.st5{fill:#6A747A;}
	.st6{fill:none;}
</style>
<title>edusite_logo_magic</title>
<path class="st0" d="M21.3,47.5c3.6-2.8,8.2-2.8,12.6-2.8c4.6,0.1,11.7,0.1,14,2.7c0.5,0.6,13.6,15.1,3.4,28.2
	c-4.4,5.7-11.3,6.7-18.1,6.5c-6.8-0.3-14.3-2.5-17-9.2C11.5,60.8,18.9,50,21.3,47.5z"/>
<polyline class="st0" points="47.4,25.7 47,28.7 44.5,34.9 45,38.4 48.4,47.9 43.7,45.9 37.6,45.3 33.1,45.3 26.3,45.8 20,48.3 
	23.3,40.8 26.4,36 29.9,32.7 34.2,29.1 37.5,27.5 "/>
<path class="st1" d="M56.3,46.6l-5.4,4.8l-0.5,0.5l4,7.2l0.4,0.8l7.5-6.2l3.9-9.3L56.3,46.6z M61.3,52.3l-3.9-5l4-1.6l2.4,3.1
	L61.3,52.3z"/>
<path class="st2" d="M34.4,14.7c0,0.2,0,0.4,0,0.5c-0.3-5.4-3.5-9.7-7.6-9.7c-4.2,0-7.6,4.6-7.6,10.4s3.4,10.4,7.6,10.4
	c1,0,2-0.3,2.9-0.8c-1.9,1.7-4.4,2.7-7,2.7c-6.4,0-11.7-6-11.7-13.5S16.3,1.2,22.7,1.2S34.4,7.3,34.4,14.7z"/>
<path class="st3" d="M34,19.4c-0.1,0.3-0.2,0.6-0.3,0.9c-0.1,0.1-0.3,0.1-0.4,0.2c0.1-0.3,0.3-0.7,0.4-1H34z"/>
<path class="st2" d="M48.6,14c0,4.5-3,8.1-6.6,8.1c-0.3,0-0.6,0-0.9-0.1c2-0.4,3.5-2.5,3.5-5c0-2.8-1.9-5-4.1-5s-4.2,2.3-4.2,5
	c0,0.5,0.1,1.1,0.2,1.6c-0.8-1.4-1.2-3-1.2-4.6c0-4.5,3-8.1,6.6-8.1S48.6,9.5,48.6,14z"/>
<path class="st4" d="M36.7,24.4c0,0.8,0.4,1.4,1,1.4s1-0.6,1-1.4c0-0.8-0.4-1.4-1-1.4S36.7,23.6,36.7,24.4z"/>
<path class="st4" d="M34.4,24.8c0,0.8,0.4,1.4,1,1.4s1-0.6,1-1.4s-0.4-1.4-1-1.4S34.4,24,34.4,24.8z"/>
<path class="st4" d="M40.5,20.3c-0.1,0.3-0.8,0.3-1.7,0.1s-1.5-0.6-1.4-0.9s0.8-0.3,1.7-0.1S40.6,20,40.5,20.3z"/>
<path class="st4" d="M34.4,19.5c0.1,0.2-0.2,0.4-0.7,0.7c-0.1,0.1-0.3,0.1-0.4,0.2L33,20.5c-0.8,0.3-1.6,0.3-1.7,0
	c-0.1-0.3,0.5-0.7,1.4-1c0.3-0.1,0.7-0.2,1-0.2H34C34.2,19.4,34.4,19.4,34.4,19.5z"/>
<path class="st2" d="M16.1,53c-2.5-0.9-5.2-1.1-7.9-0.7c-2.3,0.3-4.3,0.9-5.6,2.9c-0.9,1.4-1.1,3.2-0.4,4.7c0.9,1.8,3.3,1.4,4.8,0.8
	c4.1-1.6,5.5-6.6,6.3-10.5c0.7-4.5,1-9,0.8-13.5c0-1.4-0.3-2.7-0.8-4c-0.4-1,1.4-1,1.7-0.2c1.2,2.5,1,5.4,1,8.1
	c0,2.1-0.1,4.2-0.3,6.3c-0.4,4.3-1.2,8.9-3.9,12.4c-2.2,2.8-7,4.8-10.1,2.2c-2.8-2.3-1.5-6.6,0.9-8.7c1.8-1.6,4.5-1.9,6.8-2
	c2.6-0.2,5.2,0.2,7.6,1.1C18.1,52.3,17.1,53.4,16.1,53L16.1,53z"/>
<path class="st5" d="M47.6,24.1c-0.8,2.2-2.2,3.5-4.6,3.7c-1,0.1-2,0-3.1,0c-1.5,0.1-3,0.5-4.3,1.2c-2.7,1.5-5,3.9-7,6.2
	c-2.1,2.4-3.9,5-5.4,7.7c-2.4,4.3-4.4,8.8-5.8,13.5c-1.4,3.9-1.9,8-1.7,12.2c0.2,3.8,2.2,7.2,5.3,9.3c3.9,2.4,9.2,2.6,13.6,2.6
	s9-0.7,12.8-3.1c4.1-2.6,6.3-7.1,6.7-11.9c0.2-3.5-0.5-7-2.1-10.1c-1.6-3.4-3.8-6.5-5.4-10c-0.8-1.9-1.5-3.8-2.2-5.7
	c-0.5-1.3-0.7-2.6-0.6-4c0.2-1.5,0.7-2.9,1.4-4.2c1.1-1.9,2.2-3.9,1-6c-0.5-0.9,1.4-0.8,1.7-0.2c1.7,3.1-0.6,5.7-1.7,8.5
	c-0.5,1-0.7,2.1-0.7,3.2c0.2,1.6,0.6,3.1,1.3,4.6c1.1,3.1,2.5,6.1,4.2,8.9c1.6,2.5,2.9,5.1,3.9,7.9c1.7,5.1,1.1,10.6-1.5,15.3
	c-2.2,3.7-6,5.9-10,7c-4.4,1.1-8.9,1.3-13.4,0.8c-4.4-0.4-8.9-1.3-12.3-4.4c-6.1-5.5-4.2-15.1-2-21.9c2.3-7.4,6-14.4,10.9-20.4
	c2.7-3.2,6.1-6.7,10.3-7.9c1.6-0.3,3.3-0.4,4.9-0.3c2.1,0,3.2-1,3.9-2.9C46,22.8,47.8,23.4,47.6,24.1L47.6,24.1z"/>
<path class="st4" d="M43.7,37.4c-1.2,4.9-9.2,1.9-11.7-0.2c-0.8-0.6,1.1-0.4,1.4-0.1c2.1,1.7,7.6,3.7,8.5-0.2
	C42,36.4,43.8,36.9,43.7,37.4z"/>
<path class="st2" d="M37.8,48.8V56c0,2.2-4.8,2.2-4.8,0v-7.2C33,46.7,37.8,46.7,37.8,48.8z"/>
<path class="st1" d="M35.3,60.7c0.4,0,0.7,0.3,0.7,0.7c0,0,0,0,0,0v19.8c0,0.4-0.3,0.7-0.7,0.7l0,0c-0.4,0-0.7-0.3-0.7-0.7
	c0,0,0,0,0,0V61.5C34.6,61.1,34.9,60.7,35.3,60.7C35.3,60.7,35.3,60.7,35.3,60.7z"/>
<path class="st4" d="M45.2,23.2c-0.2,1.2,0.6,2.4,1.8,2.7c1.2,0.1,2.4-0.8,2.5-2c0,0,0,0,0,0c0.2-1.2-0.6-2.4-1.8-2.7c0,0,0,0,0,0
	C46.4,21.1,45.3,22,45.2,23.2z"/>
<path class="st1" d="M101.2,50.4c0.3-0.7,0.4-1.4,0.4-2.2c0.1-0.9-0.3-1.7-1.1-2.2c-1.3-0.7-2.9-0.7-4.2-0.1
	c-0.8,0.3-1.6,0.7-2.3,1.2c-0.8,0.5-1.5,1.1-2.3,1.8c-0.7,0.7-1.4,1.4-2.1,2.2c-0.5,0.6-0.9,1.2-1.3,1.9c-0.4,0.7-0.8,1.4-1.1,2
	c-0.3,0.7-0.6,1.4-0.8,2.1c-0.2,0.5-0.3,1.1-0.4,1.6c-0.7-0.1-1.4-0.4-1.9-0.9c-0.7-0.7-1-1.7-0.9-2.7c0-1.2,0.2-2.5,0.6-3.6
	c0.4-1.2,0.9-2.4,1.6-3.5c0.6-1.1,1.4-2.2,2.2-3.2c0.8-1,1.6-1.9,2.4-2.8c2.4-0.2,4.7-0.6,7.1-1.1c2.3-0.5,4.6-1.2,6.8-2.2
	c1-0.4,2-1,2.9-1.5c0.9-0.5,1.8-1.2,2.6-1.8c0.8-0.6,1.4-1.2,2-2c0.5-0.6,0.8-1.4,0.8-2.2c0-0.7-0.3-1.5-0.9-1.9
	c-0.6-0.6-1.5-0.8-2.3-0.8c-1.3,0-2.7,0.2-3.9,0.7c-1.4,0.5-2.8,1-4.2,1.7c-1.4,0.7-2.9,1.5-4.2,2.4c-1.4,0.9-2.7,1.8-3.9,2.7
	s-2.4,1.9-3.4,2.8c-1,0.9-1.7,1.6-2.4,2.3h-1.1c-2.7,0-5.4-0.3-8.1-0.8c-2.5-0.5-4.9-1.4-7.1-2.6c-2-1.1-3.7-2.7-5-4.6
	c-1.3-2-2-4.4-1.9-6.9c0-1.5,0.2-2.9,0.7-4.3c0.5-1.3,1.1-2.5,2-3.5c0.9-1.1,1.9-2,3-2.8c1.2-0.8,2.4-1.5,3.8-2
	c1.4-0.6,2.8-1,4.3-1.3c1.5-0.3,2.9-0.4,4.4-0.4c1.6,0,3.2,0.2,4.8,0.5c1.5,0.3,3,0.8,4.4,1.5c1.2,0.7,2.3,1.6,3.2,2.6
	c0.8,1.1,1.2,2.4,1.1,3.7c0,1.4-0.3,2.7-1,3.9c-0.7,1.1-1.6,2.1-2.7,2.9c-1.2,0.8-2.4,1.4-3.8,1.8c-1.3,0.4-2.7,0.6-4.1,0.6
	c-1.1,0-2.2-0.1-3.3-0.4l-2.8-1l2.5,1.7c0.5,0.4,1.1,0.6,1.7,0.7c0.7,0.1,1.3,0.2,2,0.2c1.5,0,3-0.2,4.4-0.6
	c1.5-0.4,2.9-1.1,4.2-1.9c1.3-0.8,2.3-1.9,3.1-3.2c0.8-1.3,1.3-2.9,1.3-4.5c0-1.6-0.4-3.1-1.4-4.4c-0.9-1.2-2.1-2.3-3.5-3
	c-1.5-0.8-3.2-1.4-4.9-1.8c-1.7-0.4-3.5-0.5-5.3-0.5c-2.4,0-4.8,0.3-7.2,0.9c-2.3,0.6-4.6,1.6-6.6,2.9c-2,1.2-3.7,2.9-5,4.8
	c-1.3,2-2,4.4-1.9,6.8c0,1.8,0.3,3.5,1,5.2c0.7,1.5,1.7,2.9,2.9,4.1c1.3,1.2,2.7,2.3,4.2,3.1c1.6,0.9,3.3,1.6,5.1,2.2
	c1.8,0.6,3.7,1,5.6,1.3c1.9,0.3,3.7,0.4,5.6,0.4h0.2c-0.6,0.7-1.2,1.5-1.7,2.3c-0.7,1-1.4,2.1-1.9,3.2c-0.5,1.1-1,2.2-1.3,3.4
	c-0.3,1.1-0.5,2.3-0.5,3.5c0,0.9,0.2,1.8,0.6,2.5c0.4,0.7,0.9,1.2,1.5,1.7c0.6,0.4,1.2,0.7,1.9,0.9c0.5,0.1,1,0.2,1.5,0.3
	c-0.1,0.5-0.1,0.9-0.1,1.4c0,0.6,0,1.2,0.1,1.8c0.1,0.3,0.2,0.9,0.6,0.9c0.1,0,0.2,0,0.3-0.1c0.2-0.1,0.3-0.4,0.2-0.6
	c0-0.1,0-0.2-0.1-0.3c0-0.5,0-1.1,0-1.6c0-0.5,0.1-0.9,0.2-1.4c1.6-0.1,3.1-0.4,4.6-1c1.7-0.7,3.2-1.6,4.6-2.7
	c0.7-0.6,1.4-1.2,2-1.8c0.6-0.6,1.2-1.2,1.7-1.9C100.4,51.8,100.8,51.2,101.2,50.4z M88.8,58.4c-0.5,0.1-1,0.2-1.5,0.2
	c0.1-0.4,0.2-0.8,0.4-1.2c0.2-0.7,0.5-1.3,0.8-2c0.3-0.7,0.7-1.3,1-2c0.3-0.6,0.7-1.1,1.1-1.7c0.6-0.8,1.2-1.5,1.9-2.2
	c0.7-0.6,1.3-1.2,2.1-1.7c0.6-0.4,1.3-0.7,2-1c0.5-0.2,1.1-0.3,1.7-0.4c0.4,0,0.9,0.1,1.2,0.4c0.3,0.2,0.4,0.6,0.4,1
	c0,0.5-0.1,1-0.3,1.5c-0.3,0.6-0.6,1.2-1,1.8c-0.4,0.7-0.9,1.3-1.4,1.9c-0.6,0.7-1.2,1.3-1.9,1.9c-0.6,0.6-1.3,1-2,1.5
	c-0.7,0.4-1.5,0.8-2.2,1.1C90.3,58,89.6,58.3,88.8,58.4L88.8,58.4z M108.7,29.6c0.4,0,0.7,0.1,1,0.3c0.2,0.2,0.3,0.5,0.3,0.9
	c-0.1,1.4-0.8,2.6-1.8,3.5c-1.6,1.5-3.4,2.6-5.4,3.4c-2,0.9-4,1.5-6.1,2c-1.8,0.4-3.6,0.7-5.4,0.9c0.4-0.4,0.9-0.9,1.4-1.3
	c0.9-0.8,1.9-1.7,2.9-2.6c1-0.9,2.2-1.8,3.4-2.6c1.1-0.8,2.3-1.6,3.5-2.3c1.1-0.7,2.2-1.2,3.4-1.7C106.6,29.8,107.6,29.6,108.7,29.6
	L108.7,29.6z"/>
<path class="st1" d="M120.3,49c0.3,0.2,0.7,0.3,1.1,0.3c0.9-0.1,1.7-0.4,2.4-0.8c1.1-0.6,1.6-1.2,1.7-1.8v-0.2l-0.2-0.1
	c-0.1-0.1-0.2-0.2-0.4-0.2h-0.1l-0.1,0.1c-2.4,1.7-3.1,1.9-3.3,1.9c-0.1,0-0.2,0-0.3,0c0.3-0.3,0.5-0.7,0.5-1.1c0-0.6-0.4-1-1-1
	c0,0-0.1,0-0.1,0c-0.5,0-0.9,0.3-1,0.7v0.1V48C119.6,48.5,119.9,48.9,120.3,49z"/>
<path class="st1" d="M148.3,53.3c-0.9,0.6-1.8,1.3-2.7,2c-0.6,0.6-1.4,1.1-2.3,1.4c0.4-0.8,0.9-1.5,1.5-2.1c1.5-1.9,1.7-2.6,1.7-3
	c0-0.4-0.2-1.4-1.7-1.4c-1.1,0-3,1-5.7,3.1c0.4-0.5,0.6-1.1,0.7-1.7c0-0.4-0.2-1.4-1.8-1.4c-1.2,0-3.2,1.2-6.3,3.6
	c0.9-1.4,1.1-1.9,1.1-2.2c0.1-0.7-0.5-1.4-1.2-1.4c-0.1,0-0.2,0-0.3,0c-1.2,0.1-2.4,0.7-3.2,1.5c-1,0.8-1.9,1.6-2.8,2.6
	c-2,1.9-3,2.4-3.6,2.5c0-0.2,0.3-0.8,2-2.9c2.2-2.6,2.2-2.8,2.2-3c0-0.6-0.9-0.6-1.3-0.6c-0.6,0-1.1,0.2-1.5,0.6c-6,5-7.6,5.9-8.1,6
	c0.5-1,1.1-1.9,1.8-2.7c2.3-3,2.3-3.1,2.4-3.1l0.1-0.2l-0.1-0.2c-0.2-0.3-0.6-0.4-0.9-0.3c-0.9,0-2.2,0.6-3.9,1.8s-2.4,1.9-2.6,2.3
	l-1,0.8c-1.6,1.3-2.3,1.6-2.6,1.6c0.5-1.1,1.2-2.1,2-3c2.3-2.7,2.3-2.8,2.3-3c0-0.5-0.7-0.5-1-0.5c-0.8,0-1.6,0.4-2.2,1
	c-0.1-0.5-0.6-1-1.8-1c-1.5,0.1-2.9,0.6-4.1,1.4c-1.4,0.7-2.6,1.6-3.6,2.7l-0.1,0.1l-0.1,0.3V55l0.1,0.1l0.1,0.1
	c-0.3,0.5-0.4,1-0.4,1.6c0,0.7,0.3,1.8,2,1.8c1.4-0.1,2.7-0.6,3.8-1.5v0.1c0,0.4,0.2,1.5,1.6,1.5c1.5-0.1,2.8-0.8,3.9-1.8
	c0.9-0.7,1.6-1.3,2-1.7c-0.4,0.6-0.7,1.3-0.8,2c0,0.5,0.2,1.4,1.8,1.4c0.7,0,2-0.3,5.3-2.8c-0.2,0.4-0.4,0.9-0.4,1.4
	c0,0.4,0.2,1.4,1.7,1.4c1.5-0.2,2.8-0.8,3.9-1.8c1-0.7,1.9-1.5,2.7-2.4l1-0.9c0.6-0.5,1.2-1,1.9-1.3l-1.6,2.1
	c-1.9,2.5-2.1,3.2-2.1,3.6c0,0.4,0.4,0.7,1.1,0.7c0.3,0,0.8,0,5-3.5c2.8-2.3,4-3,4.6-3.3c-0.3,0.4-0.8,1-1.8,2.3
	c-2,2.5-2.2,3.3-2.2,3.8c0,0.3,0.2,0.7,1.1,0.7c0.5,0,1.5-0.4,5.1-3.5c2.6-2.3,3.9-3,4.6-3.2c-0.2,0.3-0.7,0.9-1.5,1.9
	c-1.3,1.6-2,2.7-2,3.5c0,0.4,0.2,1.4,1.6,1.4c1.5-0.2,2.9-0.8,4-1.8c2.8-2.2,3.1-2.7,3.1-3.1V53L148.3,53.3z M108.3,51.9
	c0,0.3-0.3,1.2-2.5,3.1c-2.1,1.9-3.1,2.2-3.6,2.2h-0.1c0,0,0,0,0-0.1c0-0.3,0.2-1.1,2.4-3.2c2.2-2.1,3-2.3,3.4-2.3
	S108.3,51.7,108.3,51.9L108.3,51.9z"/>
<path class="st6" d="M122.2,16.8C122.2,16.8,122.2,16.8,122.2,16.8c0-0.1,0-0.2-0.1-0.3l-0.1,0.1c-0.1,0.1-0.2,0.2-0.4,0.2
	c-0.9,0.5-1.7,1.1-2.4,1.9c-1,1-1.5,1.8-1.5,2.4c0,0.2,0,0.2,0.2,0.2c0.7,0,1.6-0.6,2.7-1.8c0.2-0.9,0.7-1.7,1.6-2.2
	C122.2,17.2,122.2,17,122.2,16.8z"/>
<path class="st6" d="M101.2,5.4c0.5-0.5,1.1-1,1.6-1.6c0.5-0.6,1-1.1,1.4-1.5c0.4-0.4,0.7-0.9,1-1.3c0.2-0.2,0.3-0.5,0.4-0.8
	c0-0.2,0-0.2-0.1-0.2c-0.4,0.1-0.8,0.2-1.1,0.5c-0.6,0.4-1.1,0.9-1.6,1.4c-0.6,0.6-1.2,1.2-1.8,1.9s-1.2,1.4-1.8,2s-1.3,1.4-1.8,2.1
	l-1.6,1.9c-0.5,0.6-1,1.3-1.5,1.9l-0.1,0.2l2-1.8C97.6,8.8,99.3,7.2,101.2,5.4z"/>
<path class="st2" d="M148.3,19.2L148.3,19.2L148.3,19.2L148.3,19.2z"/>
<path class="st2" d="M115.9,3.5c-0.2-0.1-0.4-0.2-0.6-0.2c-0.8,0.1-1.6,0.4-2.3,0.9c-1,0.7-1.9,1.5-2.8,2.3c-1,0.9-2.1,2-3.2,3.2
	s-2.2,2.5-3.3,3.7l-1.9,2.2c-0.7,0.8-1.3,1.5-1.8,2.2s-1.1,1.4-1.5,2s-0.8,1.1-1,1.4c-0.5,0.4-1.1,0.9-1.8,1.5
	c-0.7,0.5-1.4,1.1-2.1,1.6c-0.7,0.5-1.4,0.9-2.2,1.2c-0.6,0.3-1.2,0.4-1.9,0.5c-0.4,0-0.7-0.1-1-0.3c-0.3-0.2-0.4-0.5-0.4-0.9
	c0-0.5,0.1-0.9,0.4-1.3c0.3-0.6,0.6-1.1,1-1.6c0.4-0.6,0.9-1.2,1.4-1.8c0.5-0.6,1-1.2,1.6-1.8l2.2-1.8l2.2-1.9
	c0.8-0.6,1.6-1.4,2.4-2.1s1.8-1.6,2.8-2.6l1.6-1.5c0.5-0.5,1-1,1.5-1.5c0.4-0.4,0.8-0.9,1.1-1.4c0.3-0.4,0.4-0.8,0.5-1.3
	c0-0.2-0.1-0.5-0.3-0.6c-0.2-0.1-0.4-0.2-0.6-0.2c-0.8,0.1-1.6,0.4-2.3,0.9c-1,0.7-2,1.5-2.8,2.3c-1,0.9-2.1,2-3.2,3.2
	s-2.2,2.5-3.3,3.7l-1.8,2c-0.6,0.7-1.2,1.4-1.8,2s-1.1,1.3-1.6,2c-0.5,0.6-0.9,1.2-1.3,1.8c-0.5,0.4-1.1,0.9-1.8,1.4s-1.4,1-2.2,1.5
	c-0.7,0.4-1.4,0.8-2.2,1.2c-0.6,0.3-1.2,0.4-1.8,0.5c-0.4,0-0.7-0.1-1-0.3c-0.3-0.2-0.4-0.5-0.4-0.9c0-0.7,0.3-1.3,0.6-1.9
	c0.5-0.8,1-1.6,1.6-2.3c0.6-0.8,1.4-1.6,2.1-2.4s1.5-1.6,2.1-2.3s1.4-1.6,2.1-2.3c0.6-0.7,1.2-1.4,1.7-2.1c0.4-0.7,0.8-1.4,1.1-2.1
	c0.3-0.7,0.4-1.5,0.4-2.2c0-1-0.2-1.9-0.7-2.7c-0.5-0.8-1.1-1.4-1.9-1.9c-0.8-0.5-1.7-0.9-2.6-1.1c-2-0.5-4.1-0.5-6.1-0.1
	c-1,0.2-2,0.5-2.9,0.8c-0.9,0.3-1.8,0.7-2.6,1.1c-0.7,0.4-1.4,0.7-2.1,1.2c-1,0.7-1.9,1.4-2.7,2.2c-0.8,0.7-1.5,1.5-2.1,2.4
	c-0.6,0.8-1,1.7-1.4,2.6c-0.3,0.9-0.5,1.8-0.5,2.8c-0.1,1.4,0.5,2.8,1.6,3.8c1.2,1,2.7,1.4,4.3,1.4c1.3,0,2.6-0.3,3.8-0.7
	c1.4-0.5,2.7-1.3,3.8-2.3c0.9-0.8,1.8-1.7,2.5-2.8c0.7-0.9,1-2,1.1-3.1c0.1-0.9-0.3-1.7-1-2.2c-0.7-0.5-1.5-0.7-2.3-0.7
	c-0.9,0-1.8,0.2-2.6,0.6c-0.7,0.3-1.3,0.7-1.8,1.2c-0.1,0.1-0.2,0.2-0.3,0.4c-0.2,0.2-0.2,0.4-0.1,0.5c0.1,0.1,0.1,0.1,0.2,0.1
	c0.1,0,0.2-0.1,0.3-0.2c0.1-0.1,0.2-0.3,0.4-0.4c0.5-0.4,1.1-0.8,1.7-1c0.7-0.3,1.5-0.5,2.3-0.5c0.6,0,1.2,0.2,1.7,0.5
	c0.4,0.4,0.6,0.9,0.6,1.5c0,1-0.3,1.9-0.9,2.7c-0.6,0.9-1.4,1.8-2.2,2.6c-1.1,1-2.3,1.8-3.7,2.4c-1.1,0.4-2.2,0.7-3.4,0.7
	c-1.3,0.1-2.7-0.3-3.7-1.2c-0.9-0.8-1.3-2-1.3-3.2c0-0.9,0.2-1.8,0.5-2.6c0.3-0.9,0.7-1.7,1.2-2.5c0.6-0.8,1.3-1.5,2-2.2
	c0.8-0.7,1.7-1.4,2.6-2c0.6-0.4,1.3-0.8,1.9-1.1c0.8-0.4,1.7-0.7,2.5-1c0.9-0.3,1.9-0.6,2.8-0.8c0.9-0.2,1.9-0.3,2.9-0.3
	c0.8,0,1.6,0.1,2.3,0.2c0.7,0.1,1.4,0.4,2.1,0.8c0.6,0.3,1.1,0.8,1.5,1.4C87.8,4.8,88,5.6,88,6.3c0,0.8-0.2,1.6-0.5,2.4
	c-0.4,0.9-0.8,1.7-1.4,2.5c-0.6,0.8-1.2,1.6-1.9,2.3s-1.3,1.5-1.9,2.1l-2.4,2.7c-0.6,0.7-1.2,1.4-1.8,2.2c-0.4,0.6-0.8,1.2-1.1,1.9
	c-0.2,0.6-0.4,1.2-0.4,1.8c-0.1,0.7,0.3,1.5,0.8,1.9c1.2,0.7,2.6,0.8,3.8,0.2c0.7-0.3,1.5-0.7,2.1-1.1c0.7-0.4,1.4-0.9,2.1-1.4
	l1-0.8c-0.1,0.4-0.2,0.8-0.2,1.2c0,0.4,0.1,0.8,0.3,1.1c0.2,0.3,0.4,0.6,0.7,0.8c0.3,0.2,0.6,0.4,0.9,0.4c0.3,0.1,0.7,0.1,1,0.1
	c0.7,0,1.4-0.2,2.1-0.5c0.8-0.3,1.5-0.7,2.2-1.2c0.7-0.5,1.4-1,2.1-1.5l0.9-0.7c0,0,0,0.1,0,0.1c-0.1,0.4-0.2,0.8-0.2,1.2
	c-0.1,0.8,0.2,1.5,0.8,2c0.6,0.4,1.2,0.6,1.9,0.5l0,0c1,0,1.9-0.3,2.8-0.8c1-0.5,1.8-1.2,2.7-1.9c0.6-0.6,1.2-1.2,1.7-1.9
	c-0.1,0-0.1,0-0.2,0c-0.5,0.4-1,0.7-1.6,1.1c-0.2,0.3-0.5,0.5-0.8,0.7c-0.6,0.5-1.3,1-2,1.4c-0.7,0.4-1.6,0.7-2.4,0.7
	c-0.3,0-0.6-0.1-0.8-0.3c-0.1-0.2-0.2-0.5-0.2-0.8c0-0.6,0.2-1.1,0.4-1.6c0.3-0.7,0.7-1.3,1.1-1.9c0.4-0.6,0.9-1.2,1.3-1.8
	s0.8-1,1-1.4l2.2-1.8l2.2-1.9c0.8-0.6,1.6-1.4,2.4-2.1s1.8-1.6,2.8-2.6l1.6-1.5c0.5-0.5,1-1,1.5-1.5c0.4-0.4,0.8-0.9,1.1-1.4
	c0.3-0.4,0.4-0.8,0.5-1.3C116.2,4,116.1,3.7,115.9,3.5z M94.2,15.7c0.5-0.6,1-1.2,1.5-1.9l1.6-1.9c0.6-0.7,1.2-1.4,1.8-2.1
	s1.2-1.3,1.8-2s1.2-1.3,1.8-1.9c0.5-0.5,1-1,1.6-1.4c0.3-0.3,0.7-0.5,1.1-0.5c0.1,0,0.1,0,0.1,0.2c0,0.3-0.2,0.6-0.4,0.8
	c-0.3,0.5-0.6,0.9-1,1.3c-0.4,0.5-0.9,1-1.4,1.5s-1.1,1.1-1.6,1.6c-1.9,1.8-3.6,3.4-5.1,4.7l-2,1.8L94.2,15.7z M114.9,5
	c-0.3,0.5-0.6,0.9-1,1.3c-0.4,0.5-0.9,1-1.4,1.6s-1.1,1.1-1.6,1.6c-1.9,1.8-3.6,3.4-5.1,4.7l-2,1.8l0.1-0.2c0.5-0.6,1-1.2,1.5-1.9
	l1.7-1.9c0.6-0.7,1.2-1.4,1.8-2.1s1.2-1.3,1.8-2s1.2-1.3,1.8-1.9c0.5-0.5,1-1,1.6-1.4c0.3-0.3,0.7-0.5,1.1-0.5c0.1,0,0.1,0,0.1,0.2
	C115.3,4.4,115.2,4.7,114.9,5L114.9,5z"/>
<path class="st2" d="M111.7,20.9c0.2,0,0.3,0.1,0.3,0.2c0,0.1,0,0.2-0.1,0.3c-0.1,0.1-0.1,0.3-0.1,0.4c0,0.3,0.3,0.5,0.9,0.5
	c0.5,0.1,1.1-0.3,1.2-0.8c0-0.1,0-0.2,0-0.3c0-0.5-0.3-1.1-1.5-1.1c-1.3,0.1-2.4,0.7-3.4,1.5c-0.3,0.3-0.8,0.7-1.5,1.3
	c0.6-0.8,1.1-1.5,1.4-2v-0.1v-0.1c0-0.2-0.1-0.6-0.8-0.6c-0.2,0-0.6,0.1-2,1.3s-1.6,1.5-1.6,1.7l0,0c0,0.1,0.1,0.2,0.2,0.2
	c0,0,0,0,0,0c0,0,0.1,0,0.1,0c-1,1.4-1.2,2-1.2,2.3v0.2l0.1,0.1c0.2,0.1,0.4,0.2,0.6,0.1c0.3,0,1.1-0.3,3.5-2.6
	C110.2,21.4,111.2,20.9,111.7,20.9z"/>
<path class="st2" d="M122.7,22.7c0-0.1,0-0.2-0.1-0.2l-0.1-0.1h-0.1c-0.5,0.2-1,0.5-1.4,0.9c-0.3,0.3-0.7,0.5-1.1,0.6
	c0.8-0.6,1.3-1.5,1.4-2.5c0-0.3-0.1-0.6-0.2-0.8c-0.1-0.3-0.4-0.5-0.7-0.5c-0.3,0-0.4,0.2-0.4,0.3l-0.4-0.3h-0.1
	c-1.1,0.1-2.2,0.4-3.1,1c-1,0.5-1.9,1.2-2.6,1.9l0,0l-0.8,0.6c-1.2,1-1.7,1.2-2,1.2c0,0-0.2,0-0.4-0.9s-0.8-1.2-1.2-1.2
	c-0.4,0-0.8,0.1-1.1,0.3l-0.8,0.8l1-0.4h0.1c0,0,0.1,0.1,0.1,0.8c0,0.4,0,0.8,0.1,1.2c0.2,0.4,0.7,0.6,1.1,0.6c1-0.1,2-0.6,2.8-1.3
	c0.3-0.2,0.7-0.5,1.2-1l0,0c-0.1,0.3-0.2,0.7-0.2,1c0,0.6,0.3,1.3,1.7,1.3c1.3-0.1,2.6-0.7,3.6-1.5c0.2,0.1,0.4,0.1,0.5,0.1
	c0.6-0.1,1.2-0.4,1.7-0.8C122.5,23.2,122.7,22.9,122.7,22.7z M118.5,23.7c-1,1.2-1.9,1.8-2.7,1.8c-0.2,0-0.2,0-0.2-0.2
	c0-0.6,0.5-1.4,1.5-2.4c0.7-0.8,1.5-1.4,2.4-1.9c0.1-0.1,0.3-0.1,0.4-0.2l0.1-0.1c0,0.1,0,0.1,0.1,0.2c0,0,0,0.1,0,0.1
	c0,0.2,0,0.4,0,0.6C119.3,21.9,118.7,22.7,118.5,23.7L118.5,23.7z"/>
<path class="st2" d="M161.2,19.1c0.2,0.1,0.5,0.2,0.8,0.2c0.6-0.1,1.2-0.3,1.7-0.6c0.7-0.4,1.1-0.8,1.2-1.3v-0.1l-0.1-0.1
	c-0.1-0.1-0.1-0.1-0.2-0.1h-0.1h-0.1c-1.7,1.2-2.3,1.4-2.5,1.4c-0.1,0-0.3,0-0.4-0.1c0.3-0.2,0.5-0.5,0.5-0.8c0-0.2-0.1-0.6-0.7-0.6
	c-0.3,0-0.5,0.2-0.6,0.5l0,0v0.8C160.7,18.7,160.9,19,161.2,19.1z"/>
<path class="st2" d="M168.2,21.7c-0.1,0-0.2-0.1-0.3-0.2h-0.1h-0.7c-0.7,0.2-1.3,0.6-1.8,1.2c0,0,0,0,0,0.1c0,0.1,0,0,0,0
	c-1.8,1.8-2.7,2.2-3.1,2.2l0,0c0,0,0,0,0-0.1c0-0.1,0.1-0.6,1.5-2.2c1.6-1.9,1.6-2,1.6-2.2c0-0.4-0.6-0.4-0.9-0.4
	c-0.4,0-0.7,0.1-1,0.4c-4.6,3.8-5.8,4.4-6,4.4v-0.1c0.3-0.7,0.8-1.4,1.3-2.1c1.7-2.2,1.7-2.2,1.7-2.3l0.1-0.1l-0.1-0.1
	c-0.1-0.1-0.3-0.2-0.6-0.2c-1,0.2-2,0.6-2.8,1.3c-0.6,0.4-1.2,0.9-1.7,1.4c-0.2,0.2-0.5,0.5-1,0.9c-0.5,0.5-1,0.9-1.6,1.2l-0.1-0.1
	c0.3-0.8,0.8-1.5,1.3-2.1c1.5-1.9,1.7-2.2,1.8-2.3l0.1-0.2l-0.2-0.1c-0.1-0.1-0.3-0.1-0.4-0.1c-0.8,0-1.8,0.7-3.1,2.3
	c-0.5,0.8-1.2,1.4-2,1.9c0.4-0.3,0.6-0.7,0.7-1.2c0-0.8-0.5-0.9-0.7-0.9c-0.1,0-0.2,0-0.2,0.1l-0.1,0.1v0.6c-0.5,0.2-0.9,0.7-1,1.2
	c-0.6,0.6-0.9,0.6-1,0.6s0,0-0.1,0l-0.1-0.1c0.3-0.7,0.8-1.4,1.3-2c0.6-0.8,1.2-1.5,1.8-2.3l0.1-0.1l-0.1-0.1
	c-0.1-0.1-0.3-0.2-0.7-0.2c-0.5,0.1-0.9,0.3-1.2,0.5l-0.2,0.1l0,0l-0.4,0.3c-1,0.7-1.6,1.1-2.1,1.4l0,0l-0.1,0.1l0,0
	c-0.5,0.4-0.6,0.5-0.6,0.6c-1.6,1.5-2.1,1.7-2.2,1.7s0,0,0,0c0-0.1,0-0.1,0-0.2c0-0.1,0.1-0.5,1.3-2.1c1.4-1.8,1.4-1.8,1.4-1.9
	c0-0.4-0.6-0.4-0.8-0.4c-0.7,0.1-1.3,0.4-1.7,1c-1.1,1.2-1.5,1.5-1.6,1.6l0,0c-0.6,0.5-1.3,0.8-2.1,0.8c-0.1,0-0.2,0-0.2,0
	c0,0,0-0.1,0.1-0.1c0.1-0.1,0.2-0.3,0.2-0.5c0-0.2-0.1-0.3-0.2-0.4c1.4-1.8,1.4-1.9,1.4-2c0-0.4-0.5-0.4-0.8-0.4
	c-0.8,0.1-1.5,0.4-2.2,0.9c-0.8,0.3-1.5,0.7-2.1,1.3c-0.2,0.1-0.5,0.4-0.9,0.7c0,0,0-0.1,0-0.1c0-0.8-0.5-0.8-0.7-0.8
	c-0.1,0-0.2,0-0.2,0.1l-0.1,0.1V23c-0.5,0.2-0.9,0.7-1,1.2c-0.6,0.6-0.9,0.6-1,0.6c0,0-0.1,0-0.1,0l0,0c0.3-0.7,0.8-1.4,1.3-2
	c0.6-0.7,1.2-1.5,1.8-2.2l0.1-0.1l-0.1-0.1c-0.1-0.1-0.3-0.1-0.7-0.1c-0.5,0.1-1.1,0.3-1.4,0.7c-0.1,0.1-0.3,0.2-0.4,0.3
	c-2.2,1.5-2.7,1.9-2.8,2.1c-0.2,0.2-0.5,0.4-0.7,0.6c-1,0.9-1.5,1.1-1.7,1.1c0,0,0-0.1,0-0.1c0-0.2,0.2-0.7,1.5-2.2
	c1.6-1.9,1.6-2,1.6-2.1s0-0.3-0.5-0.3c-0.4,0-0.8,0-1.1,0.2c-1,0.9-2,1.7-2.9,2.5c-2.1,1.7-2.6,1.9-2.8,1.9l0,0c0,0,0,0,0-0.1
	c0-0.1,0-0.2,0-0.3c0-0.1,0.1-0.2,0.1-0.4c0-0.2-0.1-0.5-0.7-0.5c-0.6,0-1.1,0.3-1.3,0.8h-0.1v0.2c0,0.1,0,0.3,0,0.4
	c0,0.3,0.1,0.9,1.1,0.9c0.9-0.1,1.7-0.5,2.4-1.1c0.2-0.1,0.5-0.4,0.9-0.7c-0.1,0.2-0.2,0.5-0.3,0.8c0,0.6,0.4,1,1.1,1
	c1-0.1,2-0.6,2.7-1.3c0.6-0.4,1-0.8,1.3-1.1c0,0,0,0,0,0.1c-0.3,0.4-0.5,0.9-0.5,1.4c0,0.4,0.2,1,1.3,1c0.8-0.1,1.5-0.4,2.2-0.8
	l0.3-0.1l0,0l2-1.4c0.3-0.2,0.6-0.5,0.8-0.8c0.1,0,0.2-0.1,0.3-0.2l-0.4,0.5c-1.3,1.5-1.4,2-1.4,2.3c0,0.5,0.7,0.5,0.9,0.5
	c0.4-0.1,0.8-0.2,1.1-0.4h0.1l0,0c0.6-0.7,1-1.3,1.3-1.7c0.3,0.3,0.7,0.4,1.1,0.4c0.5,0,1-0.1,1.4-0.3c-0.1,0.3-0.2,0.6-0.2,0.9
	c0,0.4,0.2,1.1,1.3,1.1c0.8-0.1,1.5-0.4,2.1-0.8c0.6-0.4,1.1-0.8,1.6-1.4c-0.2,0.4-0.4,0.8-0.4,1.3c0,0.4,0.2,1,1.2,1
	c0.9-0.1,1.8-0.4,2.5-0.9h0.3c0.4,0,0.8-0.2,1.1-0.4c0,0.1-0.1,0.3-0.1,0.4c0,0.3,0.1,0.9,1.1,0.9c0.8-0.1,1.6-0.4,2.3-1
	c0.7-0.5,1.2-1,1.8-1.6l0.1-0.1l0,0l0.5-0.4c-0.5,0.6-0.9,1.3-1,2.1c0,0.4,0.2,1,1.2,1c0.8,0,2.2-0.8,4.2-2.3
	c-0.3,0.4-0.5,0.9-0.6,1.4c0,0.4,0.2,1,1.2,1c1-0.1,2-0.6,2.8-1.3c1.6-1.2,2-1.7,2.1-2l0,0c0.2-0.2,0.4-0.3,0.6-0.4
	c0-0.1,0.1-0.2,0.2-0.3c0.2,0,0.4,0,0.5,0.1c0.1,0.1,0.1,0.2,0.2,0.3c0.1,0.3,0,0.6-0.2,0.9c-0.1,0.1-0.2,0.2-0.3,0.3
	c0,0.2-0.1,0.3-0.2,0.4c-0.1,0.1-0.1,0.1-0.1,0.2c0,0,0,0,0,0.1c0,0.2-0.1,0.3-0.1,0.5l0,0c0.1,0.2,0.2,0.4,0.4,0.6
	c0.1-0.6,0.3-1.2,0.8-1.7c0.2-0.2,0.3-0.5,0.5-0.7C168.6,22.7,168.6,22.1,168.2,21.7z M146.3,23.2L146.3,23.2L146.3,23.2L146.3,23.2
	z"/>
</svg>
