<svg version="1.1" id="Layer_1" xmlns="http://www.w3.org/2000/svg" x="0" y="0" width="95.7" height="86.2" xml:space="preserve"><style>.st0{fill:#f58220}</style><path class="st0" d="M88.8 27.9l6.9 6.9-51.5 51.4-14-14 9.5-9.5 7.1 7.2z"/><path class="st0" d="M55.5 7.8c-.1-.1-.3-.2-.4-.3-.2-.1-.3-.1-.5-.1h-.1c-.1 0-.3 0-.4.1l-.1.1c-.2.1-.3.2-.4.3L24.7 36.6c-.1.1-.2.3-.3.4v.1c0 .1-.1.2-.1.4v.2c0 .2 0 .3.1.5s.2.3.3.4l22.1 22.1c.6.6 1.5.6 2.1 0L77.6 32c.6-.6.6-1.5 0-2.1L55.5 7.8c.1 0 0 .1 0 0zm-7.6 49.8L29.4 39.1h25.1c.4 0 .7-.2 1-.4.3-.3.4-.6.4-1V12.6l18.5 18.5-26.5 26.5zM29.4 36.1L53 12.6v23.6H29.4z"/><path fill="#6a7378" d="M35.6 0l5.6 5.6-29.3 29.3 24.4 24.4-6.3 6.3-30-30z"/></svg>