<?xml version="1.0" encoding="utf-8"?>
<!-- Generator: Adobe Illustrator 23.0.6, SVG Export Plug-In . SVG Version: 6.00 Build 0)  -->
<svg version="1.1" id="Layer_1" xmlns="http://www.w3.org/2000/svg" xmlns:xlink="http://www.w3.org/1999/xlink" x="0px" y="0px"
	 width="95.7px" height="86.2px" viewBox="0 0 95.7 86.2" style="enable-background:new 0 0 95.7 86.2;" xml:space="preserve">
<style type="text/css">
	.st0{fill:#F58220;}
	.st1{fill:#6A7378;}
</style>
<title>Citizens_reception</title>
<polygon class="st0" points="88.8,27.9 95.7,34.8 44.2,86.2 30.2,72.2 39.7,62.7 46.8,69.9 "/>
<path class="st0" d="M55.5,7.8c-0.1-0.1-0.3-0.2-0.4-0.3l0,0c-0.2-0.1-0.3-0.1-0.5-0.1h-0.1c-0.1,0-0.3,0-0.4,0.1l-0.1,0.1
	c-0.2,0.1-0.3,0.2-0.4,0.3L24.7,36.6c-0.1,0.1-0.2,0.3-0.3,0.4v0.1c0,0.1-0.1,0.2-0.1,0.4v0.2c0,0.2,0,0.3,0.1,0.5l0,0
	c0.1,0.2,0.2,0.3,0.3,0.4l0,0l22.1,22.1c0.6,0.6,1.5,0.6,2.1,0L77.6,32c0.6-0.6,0.6-1.5,0-2.1l0,0L55.5,7.8
	C55.6,7.8,55.5,7.9,55.5,7.8z M47.9,57.6L29.4,39.1h25.1c0.4,0,0.7-0.2,1-0.4c0.3-0.3,0.4-0.6,0.4-1V12.6l18.5,18.5L47.9,57.6z
	 M29.4,36.1L53,12.6v23.6H29.4z"/>
<polygon class="st1" points="35.6,0 41.2,5.6 11.9,34.9 36.3,59.3 30,65.6 0,35.6 "/>
</svg>
